<svg width="84" height="84" viewBox="0 0 84 84" fill="none" xmlns="http://www.w3.org/2000/svg">
<path fill-rule="evenodd" clip-rule="evenodd" d="M56.7614 30.2727C56.7614 34.2871 55.1667 38.1371 52.328 40.9757C49.4894 43.8144 45.6394 45.4091 41.625 45.4091C37.6106 45.4091 33.7606 43.8144 30.922 40.9757C28.0834 38.1371 26.4886 34.2871 26.4886 30.2727C26.4886 26.2583 28.0834 22.4083 30.922 19.5697C33.7606 16.7311 37.6106 15.1364 41.625 15.1364C45.6394 15.1364 49.4894 16.7311 52.328 19.5697C55.1667 22.4083 56.7614 26.2583 56.7614 30.2727V30.2727ZM49.1932 30.2727C49.1932 32.2799 48.3958 34.2049 46.9765 35.6242C45.5572 37.0435 43.6322 37.8409 41.625 37.8409C39.6178 37.8409 37.6928 37.0435 36.2735 35.6242C34.8542 34.2049 34.0568 32.2799 34.0568 30.2727C34.0568 28.2655 34.8542 26.3405 36.2735 24.9212C37.6928 23.5019 39.6178 22.7045 41.625 22.7045C43.6322 22.7045 45.5572 23.5019 46.9765 24.9212C48.3958 26.3405 49.1932 28.2655 49.1932 30.2727V30.2727Z" fill="#212121"/>
<path fill-rule="evenodd" clip-rule="evenodd" d="M41.625 0C18.6366 0 0 18.6366 0 41.625C0 64.6134 18.6366 83.25 41.625 83.25C64.6134 83.25 83.25 64.6134 83.25 41.625C83.25 18.6366 64.6134 0 41.625 0ZM7.56818 41.625C7.56818 49.5338 10.2662 56.8143 14.7882 62.5964C17.964 58.426 22.0609 55.0462 26.7589 52.7211C31.457 50.3961 36.629 49.1886 41.871 49.1932C47.0451 49.1883 52.152 50.3645 56.8027 52.6321C61.4534 54.8997 65.5252 58.199 68.7077 62.2786C71.9865 57.9783 74.1941 52.9592 75.1479 47.6364C76.1017 42.3136 75.7743 36.8401 74.1928 31.669C72.6113 26.4978 69.8211 21.7776 66.0531 17.8989C62.2852 14.0202 57.6478 11.0944 52.5246 9.36377C47.4015 7.63311 41.9398 7.14728 36.5916 7.94649C31.2434 8.74569 26.1624 10.807 21.769 13.9597C17.3756 17.1125 13.7961 21.2661 11.3267 26.0769C8.85722 30.8877 7.56887 36.2174 7.56818 41.625V41.625ZM41.625 75.6818C33.8069 75.6936 26.2248 73.004 20.1616 68.0682C22.6021 64.5745 25.8504 61.722 29.6302 59.7534C33.4099 57.7848 37.6093 56.7583 41.871 56.7614C46.0795 56.758 50.2281 57.7587 53.9722 59.6805C57.7163 61.6023 60.948 64.3896 63.3987 67.8109C57.2885 72.907 49.5814 75.693 41.625 75.6818V75.6818Z" fill="#212121"/>
</svg>
